<svg width="20" height="12" viewBox="0 0 20 12" fill="none" xmlns="http://www.w3.org/2000/svg">
<path fill-rule="evenodd" clip-rule="evenodd" d="M8.22509 5.39903C8.22509 5.39903 9.96515 5.27481 9.96515 3.28746C9.96515 1.30564 8.54195 0.333374 6.73511 0.333374H0.791687V11.4312H6.73457C6.73457 11.4312 10.365 11.5394 10.365 8.15326C10.3653 8.15326 10.521 5.39903 8.22509 5.39903ZM10.8154 7.41894C10.8154 7.39714 10.8211 3.15772 15.2018 3.15772C19.8275 3.15772 19.177 7.97493 19.177 7.97493H13.2617C13.2617 10.0327 15.2686 9.90292 15.2686 9.90292C17.1698 9.90292 17.1033 8.70951 17.1033 8.70951H19.1102C19.1102 11.8795 15.2018 11.6636 15.2018 11.6636C10.5153 11.6636 10.8154 7.41894 10.8154 7.41894ZM15.2465 4.78316C13.4839 4.78316 13.2393 6.48974 13.2393 6.48974H16.9865C16.9865 6.48974 17.0144 4.78316 15.2465 4.78316ZM6.73484 2.30443H3.41044V4.78316H6.52909C7.06847 4.78316 7.54106 4.6156 7.54106 3.46001C7.54106 2.30443 6.73484 2.30443 6.73484 2.30443ZM6.56829 9.46012H3.41044V6.48974H6.73484C6.73484 6.48974 7.94147 6.47898 7.9358 8.018C7.9358 9.31436 7.04089 9.44935 6.56829 9.46012ZM12.7445 2.35328V0.986804H17.4591V2.35328H12.7445Z" fill="#666666"/>
</svg>
