<svg width="10" height="17" viewBox="0 0 10 17" fill="none" xmlns="http://www.w3.org/2000/svg">
<path d="M8.78314 0.211587L6.78403 0.208374C4.53811 0.208374 3.08669 1.70004 3.08669 4.00878V5.76102H1.07668C0.902995 5.76102 0.762344 5.90207 0.762344 6.07606V8.61486C0.762344 8.78885 0.903156 8.92974 1.07668 8.92974H3.08669V15.3359C3.08669 15.5099 3.22734 15.6508 3.40103 15.6508H6.02352C6.19721 15.6508 6.33786 15.5098 6.33786 15.3359V8.92974H8.68803C8.86172 8.92974 9.00237 8.78885 9.00237 8.61486L9.00333 6.07606C9.00333 5.99252 8.97014 5.91252 8.91128 5.8534C8.85242 5.79428 8.77223 5.76102 8.68884 5.76102H6.33786V4.27562C6.33786 3.56168 6.5077 3.19925 7.43613 3.19925L8.78282 3.19877C8.95634 3.19877 9.097 3.05771 9.097 2.88389V0.526467C9.097 0.352801 8.9565 0.211908 8.78314 0.211587Z" fill="#666666"/>
</svg>
