<svg width="14" height="17" viewBox="0 0 14 17" fill="none" xmlns="http://www.w3.org/2000/svg">
<path d="M10.8089 1.80038C9.75561 0.773783 8.29803 0.208374 6.70463 0.208374C4.27063 0.208374 2.77362 1.22139 1.94639 2.07116C0.926898 3.1184 0.342285 4.50892 0.342285 5.88627C0.342285 7.61562 1.05472 8.94296 2.24778 9.43676C2.32788 9.47009 2.40847 9.48687 2.48748 9.48687C2.73917 9.48687 2.9386 9.31966 3.00769 9.05144C3.04796 8.89756 3.14128 8.51795 3.18185 8.35315C3.26871 8.0277 3.19853 7.87117 3.00912 7.64453C2.66406 7.22999 2.50337 6.7398 2.50337 6.10183C2.50337 4.20688 3.8931 2.19292 6.46883 2.19292C8.51256 2.19292 9.78211 3.37229 9.78211 5.27075C9.78211 6.46877 9.52795 7.57824 9.06632 8.39494C8.74554 8.9624 8.18146 9.63885 7.3155 9.63885C6.94102 9.63885 6.60464 9.48266 6.39238 9.21038C6.19187 8.95298 6.12579 8.62047 6.20643 8.27393C6.29753 7.88239 6.42175 7.47397 6.54197 7.07912C6.76123 6.35798 6.96851 5.67687 6.96851 5.13346C6.96851 4.20397 6.40571 3.57943 5.56817 3.57943C4.50377 3.57943 3.66988 4.67708 3.66988 6.07833C3.66988 6.76555 3.84977 7.27955 3.9312 7.47692C3.79711 8.05376 3.00019 11.4831 2.84902 12.1298C2.76162 12.5073 2.2351 15.489 3.10659 15.7267C4.08576 15.9938 4.961 13.0899 5.05008 12.7618C5.12228 12.4949 5.37491 11.4858 5.52973 10.8655C6.00241 11.3278 6.7635 11.6403 7.50407 11.6403C8.90016 11.6403 10.1557 11.0024 11.0394 9.84429C11.8965 8.72098 12.3686 7.15533 12.3686 5.43596C12.3686 4.09178 11.8 2.76665 10.8089 1.80038Z" fill="#666666"/>
</svg>
