<svg width="16" height="14" viewBox="0 0 16 14" fill="none" xmlns="http://www.w3.org/2000/svg">
<path d="M15.7917 2.1344C15.2185 2.39029 14.6019 2.56336 13.9553 2.64066C14.6155 2.24242 15.1222 1.61231 15.3613 0.860244C14.7435 1.22919 14.059 1.49684 13.3311 1.64111C12.7479 1.01579 11.9169 0.625 10.9968 0.625C9.2315 0.625 7.79973 2.06647 7.79973 3.84377C7.79973 4.09605 7.8281 4.34162 7.88294 4.57734C5.22587 4.44316 2.86994 3.1618 1.29296 1.21383C1.01781 1.68912 0.859974 2.24242 0.859974 2.83222C0.859974 3.94867 1.42482 4.93429 2.28221 5.51136C1.75838 5.4948 1.26507 5.35005 0.834223 5.10832C0.833985 5.12201 0.833985 5.13569 0.833985 5.14913C0.833985 6.70871 1.93649 8.00951 3.39878 8.30501C3.13078 8.37894 2.84777 8.41807 2.55664 8.41807C2.35016 8.41807 2.15012 8.39814 1.95508 8.3607C2.36185 9.63918 3.54232 10.5698 4.94166 10.596C3.84727 11.4594 2.4689 11.9739 0.970605 11.9739C0.713101 11.9739 0.45798 11.9587 0.208344 11.9287C1.62247 12.8423 3.30341 13.375 5.1088 13.375C10.9895 13.375 14.2054 8.4704 14.2054 4.21656C14.2054 4.07709 14.2023 3.9381 14.1961 3.80032C14.8213 3.34663 15.3632 2.77989 15.7917 2.1344V2.1344Z" fill="#666666"/>
</svg>
